<?xml version="1.0" encoding="UTF-8" standalone="no"?>
<!DOCTYPE svg PUBLIC "-//W3C//DTD SVG 1.1//EN" "http://www.w3.org/Graphics/SVG/1.1/DTD/svg11.dtd">
<svg width="100%" height="100%" viewBox="0 0 800 800" version="1.1" xmlns="http://www.w3.org/2000/svg" xmlns:xlink="http://www.w3.org/1999/xlink" xml:space="preserve" xmlns:serif="http://www.serif.com/" style="fill-rule:evenodd;clip-rule:evenodd;stroke-linejoin:round;stroke-miterlimit:2;">
    <g>
        <path d="M220.587,507.252L260.155,535.116C272.323,543.697 287.5,546.892 302.108,543.975C316.717,541.042 329.48,532.234 337.416,519.648L373.33,462.53L250.866,376.245L209.177,429.308C199.978,441.009 195.984,455.997 198.12,470.731C200.294,485.453 208.419,498.684 220.587,507.252Z" style="fill:rgb(223,158,184);fill-rule:nonzero;"/>
        <path d="M600.452,101.406C615.338,77.75 609.083,46.625 586.259,30.539L585.956,30.338C563.12,14.25 531.694,18.863 514.431,40.814L265.689,357.378L386.106,442.209L600.452,101.406Z" style="fill:rgb(223,158,184);fill-rule:nonzero;"/>
        <path d="M788.664,696.78C782.397,696.78 777.33,701.859 777.33,708.127C777.33,714.394 782.397,719.448 788.664,719.448C794.933,719.448 800,714.394 800,708.127C800,701.859 794.933,696.78 788.664,696.78Z" style="fill:rgb(223,158,184);fill-rule:nonzero;"/>
        <path d="M714.727,675.928C720.842,675.928 725.808,670.961 725.808,664.833C725.808,658.742 720.842,653.775 714.727,653.775C708.609,653.775 703.644,658.741 703.644,664.833C703.644,670.961 708.609,675.928 714.727,675.928Z" style="fill:rgb(223,158,184);fill-rule:nonzero;"/>
        <path d="M257.02,689.019C279.944,656.492 283.506,613.919 266.347,577.942L265.625,576.427L179.847,515.997L178.192,515.833C138.538,511.777 99.667,529.467 76.742,562.008C55.008,592.855 47.109,626.52 39.464,659.059C34.256,681.275 28.873,704.261 19.094,726.325C11.019,744.598 5.609,751.119 5.572,751.144L0,757.436L7.581,761.102C42.914,778.136 90.631,780.486 138.486,767.595C188.769,754.038 230.875,726.12 257.02,689.019ZM212.728,697.663C211.402,698.548 210.05,699.522 208.62,700.619C192.902,712.978 172.417,707.658 184.889,682.588C197.336,657.503 175.373,649.466 157.542,665.944C135.163,686.619 124.661,670.114 128.806,658.703C132.925,647.291 147.798,631.723 135.352,621.666C127.87,615.6 118.216,624.47 102.8,636.487C93.98,643.35 73.634,641.125 81.873,610.608C86.347,599.247 91.856,588.303 99.223,577.841C115.223,555.119 142.353,541.773 170.167,542.836L243.637,594.57C254,620.427 250.538,650.452 234.539,673.172C228.386,681.892 221.056,690.119 212.728,697.663Z" style="fill:rgb(223,158,184);fill-rule:nonzero;"/>
        <path d="M737.131,690.613L530.545,690.613C530.191,689.867 529.952,689.045 529.952,688.159C529.952,686.733 530.533,685.456 531.405,684.444L658.797,684.444C667.934,684.444 675.325,677.064 675.325,667.916C675.325,658.791 667.934,651.398 658.797,651.398L309.008,651.398C309.489,675.459 302.577,699.508 288.272,719.814C270.744,744.697 245.75,764.991 216.091,779.245L690.781,779.245C701.017,779.245 709.319,770.942 709.319,760.695C709.319,750.447 701.016,742.144 690.781,742.144L604.231,742.144C599.077,742.144 594.892,737.975 594.892,732.819C594.892,730.872 595.627,729.205 596.611,727.714L737.133,727.714C747.381,727.714 755.697,719.425 755.697,709.163C755.695,698.916 747.38,690.613 737.131,690.613Z" style="fill:rgb(223,158,184);fill-rule:nonzero;"/>
    </g>
</svg>
