<?xml version="1.0" encoding="UTF-8" standalone="no"?>
<!DOCTYPE svg PUBLIC "-//W3C//DTD SVG 1.1//EN" "http://www.w3.org/Graphics/SVG/1.1/DTD/svg11.dtd">
<svg width="100%" height="100%" viewBox="0 0 2048 1011" version="1.1" xmlns="http://www.w3.org/2000/svg" xmlns:xlink="http://www.w3.org/1999/xlink" xml:space="preserve" xmlns:serif="http://www.serif.com/" style="fill-rule:evenodd;clip-rule:evenodd;stroke-linejoin:round;stroke-miterlimit:2;">
    <g id="Artboard1" transform="matrix(1,0,0,0.657986,0,0)">
        <rect x="0" y="0" width="2048" height="1536" style="fill:none;"/>
        <g transform="matrix(2.52216,0,0,3.83315,-850.142,-1458.12)">
            <path d="M548.925,753.691C538.519,759.818 523.972,761.813 508.968,759.176C493.099,756.383 479.353,748.939 470.274,738.225C462.313,728.833 460.042,715.81 464.339,704.25L464.52,703.763L489.291,682.777L489.796,682.681C501.905,680.339 514.372,684.72 522.333,694.117C529.881,703.024 533.243,713.182 536.495,722.999C538.712,729.702 541.004,736.638 544.626,743.168C545.705,745.119 546.635,746.609 547.384,747.716C548.712,749.678 549.469,750.44 549.477,750.444L551.367,752.23L549.132,753.569C549.063,753.61 548.994,753.65 548.925,753.691ZM484.162,739.669C484.595,739.905 485.038,740.168 485.509,740.467C490.694,743.843 496.86,741.639 492.326,734.256C487.799,726.868 494.346,723.787 500.295,728.374C507.762,734.129 510.544,728.753 508.952,725.35C507.368,721.947 502.356,717.559 505.914,714.117C508.053,712.041 511.272,714.509 516.354,717.787C519.262,719.66 525.471,718.413 522.091,709.236C520.399,705.858 518.4,702.637 515.841,699.615C510.284,693.054 501.556,689.688 493.013,690.782L471.796,708.749C469.315,717.003 471.209,726.161 476.765,732.722C478.902,735.24 481.387,737.574 484.162,739.669ZM547.122,737.001C547.192,735.301 547.298,733.451 547.441,731.45C547.969,724.054 548.879,715.397 550.17,705.478C551.461,695.559 553.075,684.789 555.012,673.167C556.949,661.546 559.179,649.925 561.703,638.304C564.227,626.683 566.927,615.414 569.803,604.497C572.679,593.58 575.643,583.866 578.695,575.356C580.932,569.118 583.216,563.747 585.548,559.243C584.978,558.818 584.439,558.342 583.931,557.814C581.314,555.095 579.351,551.816 578.042,547.978C576.734,544.139 575.834,540.101 575.343,535.863C574.853,531.624 574.525,528.066 574.36,525.187C572.417,527.586 570.028,530.345 567.194,533.464C564.36,536.582 561.364,539.541 558.206,542.34C555.048,545.139 551.728,547.498 548.246,549.417C544.764,551.336 541.322,552.296 537.921,552.296C534.197,552.296 531.12,551.536 528.69,550.017C526.261,548.498 524.277,546.498 522.739,544.019C521.2,541.54 520.107,538.781 519.459,535.743C518.811,532.704 518.487,529.665 518.487,526.626C518.487,524.227 518.892,520.709 519.702,516.071C520.512,511.432 521.605,506.394 522.982,500.957C524.358,495.519 526.059,489.961 528.083,484.283C530.107,478.605 532.375,473.448 534.885,468.809C537.395,464.171 540.108,460.373 543.023,457.414C545.938,454.455 548.934,452.976 552.011,452.976C554.764,452.976 557.315,454.015 559.663,456.095C562.012,458.174 563.186,460.653 563.186,463.532C563.186,464.971 562.74,467.09 561.85,469.889C560.959,472.688 559.825,475.807 558.449,479.245C557.072,482.684 555.615,486.282 554.076,490.041C552.538,493.799 551.04,497.358 549.582,500.717C546.991,506.794 545.128,512.312 543.995,517.27C542.861,522.228 542.74,525.507 543.63,527.106C544.521,528.705 546.626,528.106 549.946,525.307C553.266,522.508 558.084,516.31 564.4,506.714C567.154,502.556 570.361,497.678 574.023,492.08C577.684,486.482 581.477,480.085 585.402,472.888C588.839,466.65 591.947,461.692 594.726,458.014C597.506,454.335 600.03,451.456 602.297,449.377C604.564,447.298 606.548,445.939 608.249,445.299C609.949,444.659 611.528,444.339 612.986,444.339C615.415,444.339 617.601,445.219 619.545,446.978C621.488,448.737 622.46,450.817 622.46,453.216C622.46,456.414 621.205,461.292 618.694,467.85C616.184,474.407 613.471,481.684 610.556,489.681C607.641,497.678 604.929,505.795 602.418,514.031C599.908,522.268 598.653,529.505 598.653,535.743C598.653,537.982 598.936,539.901 599.503,541.5C600.07,543.1 600.718,544.499 601.447,545.699C601.607,545.963 601.766,546.226 601.923,546.487C602.62,546.762 603.3,547.141 603.962,547.623C605.899,549.032 607.044,550.91 607.396,553.258C607.513,554.314 607.278,556.398 606.691,559.508C606.105,562.619 605.312,566.287 604.314,570.513C603.317,574.739 602.201,579.259 600.969,584.071C599.736,588.884 598.533,593.521 597.359,597.982C596.185,602.442 595.129,606.492 594.19,610.131C593.251,613.77 592.605,616.529 592.253,618.407C593.779,617.468 596.391,615.766 600.088,613.301C603.786,610.835 608.1,607.871 613.03,604.409C617.961,600.946 623.36,597.189 629.23,593.14C635.099,589.09 640.998,585.011 646.926,580.902C652.854,576.794 658.635,572.832 664.269,569.017C669.904,565.202 674.981,561.797 679.5,558.804C682.76,556.645 685.638,554.791 688.135,553.243C687.937,553.058 687.741,552.87 687.548,552.676C683.58,548.836 681.212,544.196 680.444,538.756C679.676,533.316 679.708,527.844 680.54,522.34C681.372,516.836 682.556,511.62 684.092,506.692C685.628,501.764 686.716,497.892 687.356,495.076C685.564,496.74 683.228,499.652 680.348,503.812C677.468,507.972 674.3,512.708 670.844,518.02C667.388,523.332 663.772,528.836 659.996,534.532C656.22,540.228 652.54,545.444 648.956,550.18C645.372,554.916 641.98,558.82 638.78,561.892C635.58,564.964 632.892,566.5 630.716,566.5C626.876,566.5 623.548,565.188 620.732,562.564C617.916,559.94 616.188,556.772 615.548,553.06C614.908,549.476 615.132,544.452 616.22,537.988C617.308,531.524 618.972,524.516 621.212,516.964C623.452,509.412 626.204,501.764 629.468,494.02C632.732,486.276 636.252,479.268 640.028,472.996C643.804,466.724 647.772,461.572 651.932,457.54C656.092,453.508 660.22,451.492 664.316,451.492C667.644,451.492 670.492,452.42 672.86,454.276C675.228,456.132 676.732,458.724 677.372,462.052C678.908,470.884 675.452,474.98 667.004,474.34C665.34,476.388 663.228,479.908 660.668,484.9C658.108,489.892 655.58,495.268 653.084,501.028C650.588,506.788 648.348,512.356 646.364,517.732C644.38,523.108 643.196,527.14 642.812,529.828C644.604,527.78 647.228,524.388 650.684,519.652C654.14,514.916 658.076,509.604 662.492,503.716C666.908,497.828 671.548,491.748 676.412,485.476C681.276,479.204 686.044,473.444 690.716,468.196C695.388,462.948 699.676,458.66 703.58,455.332C707.484,452.004 710.716,450.34 713.276,450.34C716.604,450.34 719.612,451.524 722.3,453.892C724.988,456.26 726.588,459.108 727.1,462.436C727.484,464.612 727.164,467.524 726.14,471.172C725.116,474.82 723.676,478.884 721.82,483.364C719.964,487.844 717.916,492.58 715.676,497.572C713.436,502.564 711.292,507.556 709.244,512.548C707.196,517.54 705.436,522.34 703.964,526.948C702.492,531.556 701.628,535.716 701.372,539.428C704.06,540.836 706.524,542.276 708.764,543.748C711.004,545.22 712.444,547.62 713.084,550.948C713.34,552.356 713.212,553.54 712.7,554.5C712.188,555.46 711.452,556.292 710.492,556.996C709.532,557.7 708.444,558.212 707.228,558.532C706.769,558.653 706.315,558.751 705.865,558.826C705.581,559.943 705.039,560.962 704.239,561.885C702.361,564.351 698.869,567.843 693.763,572.362C688.656,576.882 682.64,581.929 675.714,587.505C668.789,593.081 661.393,598.921 653.528,605.025C645.664,611.129 638.034,616.91 630.638,622.369C623.243,627.827 616.552,632.728 610.565,637.071C604.579,641.415 600,644.643 596.831,646.756L597.183,647.988C604.579,653.271 611.446,659.14 617.784,665.596C624.123,672.052 630.638,678.391 637.329,684.613C641.32,688.134 645.311,691.626 649.303,695.089C653.294,698.552 656.991,702.22 660.396,706.094C661.335,707.151 662.215,708.383 663.037,709.792C663.858,711.201 664.387,712.609 664.621,714.018C664.974,716.366 664.357,718.537 662.773,720.533C661.188,722.528 659.28,723.643 657.05,723.878C655.407,724.113 653.91,723.966 652.56,723.438C651.21,722.91 649.948,722.176 648.774,721.237C647.6,720.298 646.456,719.271 645.341,718.156C644.226,717.04 643.081,716.013 641.907,715.074C632.751,707.679 623.654,700.284 614.615,692.888C605.576,685.493 596.596,677.922 587.675,670.174C584.975,667.709 582.275,665.831 579.575,664.54C579.106,666.535 578.372,669.734 577.374,674.136C576.377,678.538 575.261,683.527 574.029,689.103C572.796,694.678 571.564,700.489 570.331,706.534C569.099,712.58 567.983,718.244 566.986,723.526C565.988,728.808 565.195,733.386 564.609,737.26C564.022,741.134 563.846,743.658 564.08,744.832C564.315,746.475 564.902,747.884 565.841,749.058C566.78,750.231 567.367,751.64 567.602,753.283C567.837,755.279 567.22,757.098 565.753,758.742C564.286,760.385 562.672,761.324 560.911,761.559C558.681,761.911 556.773,761.706 555.188,760.943C553.711,760.232 552.464,759.266 551.445,758.044C551.534,757.992 551.623,757.94 551.711,757.887L551.716,757.884L553.952,756.545C555.303,755.736 556.197,754.341 556.368,752.775C556.538,751.21 555.966,749.655 554.821,748.573L553.049,746.899C552.815,746.619 551.158,744.585 549.027,740.733L549.025,740.729C548.343,739.5 547.712,738.256 547.122,737.001ZM373.088,545.551L458.466,636.258L423.693,665.719L348.247,566.594C343.008,559.714 344.078,549.949 350.669,544.363L350.757,544.293C357.351,538.706 367.163,539.262 373.088,545.551ZM409.258,576.64C409.626,573.436 410.037,570.088 410.492,566.596C411.9,555.78 413.66,544.036 415.772,531.364C417.884,518.692 420.316,506.02 423.068,493.348C425.82,480.676 428.764,468.388 431.9,456.484C435.036,444.58 438.268,433.988 441.596,424.708C444.924,415.428 448.348,407.908 451.868,402.148C455.388,396.388 458.876,393.252 462.332,392.74C464.764,392.356 467.036,392.932 469.148,394.468C471.26,396.004 472.508,398.052 472.892,400.612C473.02,401.764 472.764,404.036 472.124,407.428C471.484,410.82 470.62,414.82 469.532,419.428C468.444,424.036 467.228,428.964 465.884,434.212C464.54,439.46 463.228,444.516 461.948,449.38C460.668,454.244 459.516,458.66 458.492,462.628C457.468,466.596 456.764,469.604 456.38,471.652C458.044,470.628 460.892,468.772 464.924,466.084C468.956,463.396 473.66,460.164 479.036,456.388C484.412,452.612 490.3,448.516 496.7,444.1C503.1,439.684 509.532,435.236 515.996,430.756C522.46,426.276 528.764,421.956 534.908,417.796C541.052,413.636 546.588,409.924 551.516,406.66C556.444,403.396 560.572,400.772 563.9,398.788C567.228,396.804 569.276,395.748 570.044,395.62C572.348,395.236 574.556,395.748 576.668,397.156C578.78,398.564 580.028,400.548 580.412,403.108C580.796,405.796 580.156,408.1 578.492,410.02C576.444,412.708 572.636,416.516 567.068,421.444C561.5,426.372 554.94,431.876 547.388,437.956C539.836,444.036 531.772,450.404 523.196,457.06C514.62,463.716 506.3,470.02 498.236,475.972C490.172,481.924 482.876,487.268 476.348,492.004C469.82,496.74 464.828,500.26 461.372,502.564L461.756,503.908C469.82,509.668 477.308,516.068 484.22,523.108C491.132,530.148 498.236,537.06 505.532,543.844C509.884,547.684 514.236,551.492 518.588,555.268C522.94,559.044 526.972,563.044 530.684,567.268C531.708,568.42 532.668,569.764 533.564,571.3C534.46,572.836 535.036,574.372 535.292,575.908C535.676,578.468 535.004,580.836 533.276,583.012C531.548,585.188 529.468,586.404 527.036,586.66C525.244,586.916 523.612,586.756 522.14,586.18C520.668,585.604 519.292,584.804 518.012,583.78C516.732,582.756 515.484,581.636 514.268,580.42C513.052,579.204 511.804,578.084 510.524,577.06C500.54,568.996 490.62,560.932 480.764,552.868C470.908,544.804 461.116,536.548 451.388,528.1C448.444,525.412 445.5,523.364 442.556,521.956C442.044,524.132 441.244,527.62 440.156,532.42C439.068,537.22 437.852,542.66 436.508,548.74C435.164,554.82 433.82,561.156 432.476,567.748C431.132,574.34 429.916,580.516 428.828,586.276C428.188,589.663 427.626,592.784 427.141,595.639L409.258,576.64ZM1121.31,493.573C1124.39,495.094 1125.94,497.521 1125.94,500.853C1125.95,504.858 1123.97,506.864 1120,506.87C1118.12,506.873 1115.04,506.505 1110.74,505.767C1108.53,505.305 1106.05,505.076 1103.3,505.08C1097.78,505.089 1025.96,506.597 1008.55,509.605C1006.69,517.525 1003.18,526.565 998.01,536.725C992.185,547.818 986.246,556.303 980.192,562.18C983.507,567.111 986.324,570.646 988.642,572.784C993.389,577.247 999.621,579.473 1007.34,579.461C1011.09,579.455 1014.94,579.03 1018.91,578.185C1023.32,577.34 1026.74,576.915 1029.16,576.911C1033.24,576.905 1035.28,578.625 1035.29,582.071C1035.29,585.144 1032.76,587.756 1027.69,589.907C1020.2,593.085 1011.99,594.681 1003.06,594.695C988.511,594.718 976.43,588.218 966.819,575.194C952.177,586.952 938.021,592.842 924.352,592.864C911.828,592.884 901.374,589.393 892.99,582.392C892.552,583.084 892.084,583.761 891.587,584.424C885.014,592.641 879.643,601.18 875.476,610.043C871.309,618.906 867.699,628.326 864.647,638.304C866.408,636.778 868.286,635.164 870.282,633.462C872.277,631.76 874.332,630.204 876.445,628.796C878.558,627.387 880.788,626.242 883.136,625.362C885.483,624.482 887.948,624.041 890.531,624.041C895.931,624.041 899.863,625.861 902.328,629.5C904.793,633.139 906.026,637.423 906.026,642.354C906.026,645.993 905.556,649.661 904.617,653.359C903.678,657.056 902.622,660.754 901.448,664.452C900.274,668.149 899.217,671.847 898.278,675.545C897.339,679.242 896.87,682.852 896.87,686.373C896.87,687.547 897.134,688.486 897.662,689.191C898.19,689.895 898.748,690.541 899.335,691.128C899.922,691.714 900.479,692.331 901.008,692.976C901.536,693.622 901.8,694.473 901.8,695.529C901.8,697.642 900.802,699.374 898.807,700.724C896.811,702.074 894.874,702.749 892.996,702.749C890.414,702.749 888.301,702.015 886.657,700.548C885.014,699.08 883.693,697.29 882.695,695.177C881.698,693.064 881.023,690.805 880.67,688.398C880.318,685.992 880.142,683.791 880.142,681.795C880.142,677.687 880.612,673.52 881.551,669.294C882.49,665.068 883.546,660.842 884.72,656.616C886.833,648.516 887.215,643.792 885.865,642.442C884.515,641.092 880.67,644.114 874.332,651.51C871.514,654.797 868.932,658.406 866.584,662.339C864.236,666.271 862.094,670.321 860.157,674.488C858.22,678.655 856.489,682.705 854.963,686.637C853.437,690.57 852.146,694.18 851.089,697.466C850.502,699.11 849.651,700.606 848.536,701.956C847.421,703.306 845.866,703.981 843.87,703.981C841.405,703.981 839.556,703.072 838.323,701.252C837.091,699.433 836.181,697.232 835.594,694.649C835.007,692.067 834.685,689.396 834.626,686.637C834.567,683.879 834.538,681.619 834.538,679.858L834.714,675.28C836.005,661.077 838.734,647.284 842.902,633.902C847.069,620.52 852.615,607.607 859.541,595.164C860.597,593.286 862.123,590.939 864.119,588.121C866.115,585.304 868.316,582.545 870.722,579.846C873.128,577.146 875.652,574.827 878.293,572.89C879.899,571.713 881.429,570.893 882.883,570.432C879.52,564.438 877.832,557.597 877.82,549.908C877.799,536.775 882.41,524.613 891.652,513.422C901.224,502.044 918.46,491.819 943.359,482.745C942.467,476.692 942.018,471.431 942.011,466.96C941.995,456.808 943.689,447.911 947.095,440.268C950.28,432.905 955.782,426.703 963.6,421.661C970.758,417.086 978.471,414.792 986.739,414.779C993.573,414.768 999.254,416.808 1003.78,420.899C1008.64,425.176 1011.07,430.294 1011.08,436.255C1011.09,444.358 1007.74,452.699 1001.03,461.279C995.972,467.527 986.998,474.061 974.111,480.88C972.569,481.628 968.328,483.776 961.389,487.327C963.284,500.829 964.843,510.466 966.065,516.239C967.398,522.663 970.171,533.509 974.384,548.777C985.715,534.602 992.53,522.204 994.829,511.583C991.962,511.401 990.088,511.264 989.206,511.173C983.143,510.996 979.229,510.397 977.463,509.375C975.256,508.074 974.151,506.167 974.147,503.652C974.144,501.417 974.857,499.6 976.288,498.2C978.049,496.521 980.363,495.679 983.229,495.675C984.221,495.673 986.922,495.808 991.332,496.081C992.214,496.173 993.041,496.218 993.812,496.217C996.963,496.212 1010.41,496.029 1026.6,495.67C1023.29,493.941 1021.02,490.465 1021.02,486.481L1021.02,438.147C1021.02,437.94 1021.05,437.733 1021.09,437.526C1021.19,436.905 1021.5,436.319 1021.95,435.836C1022.05,435.732 1022.19,435.594 1022.32,435.491C1022.43,435.387 1022.6,435.284 1022.74,435.215C1022.87,435.111 1023.05,435.042 1023.22,434.973L1095.4,407.373C1096.15,407.063 1096.98,407.063 1097.73,407.304C1098.63,407.615 1120.25,415.101 1124.06,437.492C1124.1,437.526 1124.1,437.595 1124.1,437.63C1124.13,437.802 1124.13,438.009 1124.13,438.182L1124.13,486.481C1124.13,489.219 1123.06,491.717 1121.31,493.573ZM960.049,476.571C968.861,472.366 975.855,468.117 981.029,463.825C989.506,456.64 993.739,449.694 993.728,442.988C993.723,439.542 992.616,436.61 990.407,434.192C988.309,431.867 985.662,430.707 982.465,430.712C975.74,430.723 969.903,434.038 964.953,440.659C961.103,445.881 959.188,454.359 959.206,466.095C959.209,467.864 959.49,471.356 960.049,476.571ZM944.535,494.478C934.62,498.406 926.249,502.983 919.423,508.209C904.229,519.782 896.642,532.275 896.663,545.687C896.676,553.883 899.278,560.864 904.468,566.63C909.99,572.862 917.931,575.97 928.293,575.953C938.986,575.936 949.837,571.169 960.845,561.652C956.753,553.276 953.153,542.012 950.044,527.86C947.929,514.637 946.092,503.51 944.535,494.478ZM1027.89,448.532L1117.26,448.532L1117.26,441.632L1027.89,441.632L1027.89,448.532ZM1113.82,489.931C1115.71,489.931 1117.26,488.379 1117.26,486.481L1117.26,465.781L1107.77,465.781L1111.21,458.881L1117.26,458.881L1117.26,455.432L1109.08,455.432L1103.92,465.781L1099.69,474.234C1099.11,475.407 1097.94,476.131 1096.63,476.131C1095.33,476.131 1094.16,475.407 1093.58,474.234L1089.38,465.781L1084.23,455.432L1027.89,455.432L1027.89,458.881L1082.06,458.881L1085.5,465.781L1027.89,465.781L1027.89,486.481C1027.89,488.379 1029.44,489.931 1031.33,489.931L1113.82,489.931ZM836.863,582.099C837.728,583.333 838.488,584.672 839.145,586.115C840.458,589.002 841.115,592.242 841.115,595.835C841.115,598.786 840.398,602.475 838.966,606.902C837.533,611.329 835.652,615.659 833.324,619.894C830.996,624.128 828.34,627.753 825.355,630.769C822.37,633.784 819.266,635.292 816.042,635.292C814.609,635.292 813.326,634.715 812.192,633.56C811.057,632.405 810.49,630.993 810.49,629.325C810.49,628.299 811.048,626.791 812.164,624.802C813.279,622.813 814.483,620.439 815.773,617.68C817.064,614.922 818.268,611.842 819.383,608.442C820.499,605.041 821.057,601.48 821.057,597.759C821.057,596.348 820.58,595.514 819.628,595.257C818.676,595 817.724,594.872 816.772,594.872C812.487,594.872 808.232,596.187 804.007,598.818C799.781,601.448 795.705,604.849 791.778,609.019C787.851,613.189 784.222,617.969 780.889,623.358C777.556,628.748 774.64,634.201 772.14,639.719C769.64,645.236 767.676,650.626 766.248,655.887C764.82,661.148 764.106,665.703 764.106,669.552C764.106,671.349 764.196,673.37 764.375,675.615C764.554,677.861 765.002,679.946 765.718,681.871C766.434,683.796 767.479,685.432 768.852,686.779C770.225,688.126 772.046,688.8 774.314,688.8C777.777,688.8 781.15,687.966 784.433,686.298C787.716,684.63 790.88,682.512 793.925,679.946C796.969,677.38 799.894,674.621 802.7,671.67C805.506,668.718 808.102,665.96 810.49,663.393C812.878,660.827 815.027,658.71 816.938,657.042C818.848,655.373 820.519,654.539 821.952,654.539C824.34,654.539 826.28,655.47 827.772,657.33C829.265,659.191 830.011,661.276 830.011,663.586C830.011,666.537 829.026,669.681 827.056,673.017C825.086,676.353 822.489,679.69 819.266,683.026C816.042,686.362 812.401,689.506 808.341,692.457C804.282,695.408 800.193,698.039 796.074,700.348C791.955,702.658 787.985,704.487 784.164,705.834C780.344,707.181 777.06,707.855 774.314,707.855C769.061,707.855 764.494,706.732 760.614,704.487C756.734,702.241 753.48,699.258 750.854,695.537C748.227,691.815 746.287,687.613 745.033,682.93C743.78,678.246 743.153,673.402 743.153,668.398C743.153,662.238 744.078,655.566 745.929,648.38C747.779,641.195 750.346,634.041 753.629,626.919C756.913,619.798 760.823,612.965 765.36,606.421C769.897,599.877 774.911,594.102 780.403,589.098C785.895,584.094 791.746,580.084 797.954,577.068C801.949,575.128 806.017,573.812 810.16,573.12C809.179,569.425 808.626,565.607 808.501,561.667C808.373,557.635 808.373,554.211 808.501,551.395C808.757,545.251 809.333,539.139 810.229,533.059C811.125,526.979 811.957,520.803 812.725,514.531C811.189,514.915 809.301,515.427 807.061,516.067C804.821,516.707 802.933,517.027 801.397,517.027C799.093,517.027 797.045,516.323 795.253,514.915C793.461,513.507 792.629,511.715 792.757,509.539C792.885,507.491 793.845,505.731 795.637,504.259C797.429,502.787 799.541,501.539 801.973,500.515C804.405,499.491 806.933,498.691 809.557,498.115C812.181,497.539 814.389,497.059 816.181,496.675C817.077,494.499 818.453,490.979 820.309,486.115C822.165,481.251 824.341,475.875 826.837,469.987C829.333,464.099 832.085,457.987 835.093,451.651C838.101,445.315 841.269,439.523 844.597,434.275C847.925,429.027 851.285,424.739 854.677,421.411C858.069,418.083 861.429,416.419 864.757,416.419C867.701,416.419 870.293,417.187 872.533,418.723C874.773,420.259 875.829,422.435 875.701,425.251L873.877,429.571C872.661,432.451 871.093,436.035 869.173,440.323C867.253,444.611 865.173,449.379 862.933,454.627C860.693,459.875 858.549,464.899 856.501,469.699C854.453,474.499 852.661,478.755 851.125,482.467C849.589,486.179 848.565,488.675 848.053,489.955L848.245,491.107C850.165,491.235 852.117,491.235 854.101,491.107C856.085,490.979 858.101,490.915 860.149,490.915C862.325,490.915 864.181,491.363 865.717,492.259C867.253,493.155 867.957,494.691 867.829,496.867C867.829,498.659 866.773,500.099 864.661,501.187C862.549,502.275 860.085,503.171 857.269,503.875C854.453,504.579 851.669,505.155 848.917,505.603C846.165,506.051 844.021,506.403 842.485,506.659C839.413,516.131 836.693,525.635 834.325,535.171C831.957,544.707 830.645,554.403 830.389,564.259L830.197,568.291C831.221,568.675 832.277,569.091 833.365,569.539C834.453,569.987 835.477,570.531 836.437,571.171C837.397,571.811 838.165,572.579 838.741,573.475C839.317,574.371 839.605,575.459 839.605,576.739C839.605,578.147 839.125,579.459 838.165,580.675C837.769,581.177 837.335,581.652 836.863,582.099ZM747.26,520.42C744.956,519.652 742.78,518.692 740.732,517.54C738.684,516.388 736.86,515.044 735.26,513.508C733.66,511.972 732.412,510.18 731.516,508.132C730.62,506.084 730.172,503.652 730.172,500.836C730.172,496.484 731.164,492.068 733.148,487.588C735.132,483.108 737.82,478.756 741.212,474.532C744.604,470.308 748.476,466.372 752.828,462.724C757.18,459.076 761.724,455.908 766.46,453.22C771.196,450.532 775.964,448.388 780.764,446.788C785.564,445.188 790.012,444.388 794.108,444.388C796.54,444.388 799.036,444.708 801.596,445.348C804.156,445.988 806.492,447.012 808.604,448.42C810.716,449.828 812.412,451.588 813.692,453.7C814.972,455.812 815.612,458.276 815.612,461.092C815.612,464.164 814.268,467.524 811.58,471.172C808.892,474.82 805.66,478.18 801.884,481.252C798.108,484.324 794.172,486.884 790.076,488.932C785.98,490.98 782.46,492.004 779.516,492.004C776.956,492.004 774.844,491.364 773.18,490.084C771.516,488.804 770.684,486.756 770.684,483.94C770.684,482.788 771.388,481.476 772.796,480.004C774.204,478.532 775.868,477.028 777.788,475.492C779.708,473.956 781.628,472.548 783.548,471.268C785.468,469.988 786.876,469.028 787.772,468.388C784.06,468.644 779.932,470.052 775.388,472.612C770.844,475.172 766.652,478.372 762.812,482.212C758.972,486.052 756.156,489.252 754.364,491.812C752.572,494.372 751.836,496.516 752.156,498.244C752.476,499.972 753.788,501.444 756.092,502.66C758.396,503.876 761.724,505.124 766.076,506.404C769.02,507.3 771.9,508.324 774.716,509.476C777.532,510.628 780.06,512.068 782.3,513.796C784.54,515.524 786.332,517.54 787.676,519.844C789.02,522.148 789.692,524.836 789.692,527.908C789.692,533.54 787.996,538.82 784.604,543.748C781.212,548.676 776.988,552.964 771.932,556.612C766.876,560.26 761.404,563.14 755.516,565.252C749.628,567.364 744.188,568.42 739.196,568.42C736.764,568.42 734.364,568.068 731.996,567.364C729.628,566.66 727.484,565.636 725.564,564.292C723.644,562.948 722.076,561.22 720.86,559.108C719.644,556.996 719.036,554.596 719.036,551.908C719.036,549.476 719.964,547.3 721.82,545.38C723.676,543.46 725.82,542.5 728.252,542.5C729.276,542.5 730.204,542.724 731.036,543.172C731.868,543.62 732.668,544.1 733.436,544.612C734.204,545.124 734.972,545.604 735.74,546.052C736.508,546.5 737.468,546.724 738.62,546.724C740.412,546.724 742.556,546.372 745.052,545.668C747.548,544.964 750.012,543.94 752.444,542.596C754.876,541.252 757.084,539.684 759.068,537.892C761.052,536.1 762.556,534.116 763.58,531.94C764.348,530.276 764.572,528.932 764.252,527.908C763.932,526.884 763.1,526.02 761.756,525.316C760.412,524.612 758.524,523.908 756.092,523.204C753.66,522.5 750.716,521.572 747.26,520.42ZM709.698,674.224C708.289,675.985 706.558,678.01 704.503,680.299C702.449,682.588 700.277,684.759 697.988,686.814C695.699,688.868 693.293,690.599 690.769,692.008C688.245,693.417 685.751,694.121 683.286,694.121C680.586,694.121 678.356,693.563 676.595,692.448C674.834,691.333 673.396,689.866 672.281,688.046C671.166,686.227 670.373,684.202 669.904,681.971C669.434,679.741 669.2,677.511 669.2,675.28C669.2,673.52 669.493,670.937 670.08,667.533C670.667,664.129 671.459,660.431 672.457,656.44C673.455,652.449 674.687,648.37 676.155,644.202C677.622,640.035 679.265,636.25 681.085,632.845C682.904,629.441 684.871,626.653 686.984,624.482C689.096,622.31 691.268,621.224 693.498,621.224C695.494,621.224 697.343,621.987 699.045,623.513C700.747,625.039 701.598,626.859 701.598,628.972C701.598,630.028 701.275,631.583 700.63,633.638C699.984,635.692 699.162,637.981 698.165,640.505C697.167,643.029 696.11,645.67 694.995,648.428C693.88,651.187 692.794,653.799 691.738,656.264C689.859,660.725 688.51,664.774 687.688,668.413C686.866,672.052 686.778,674.459 687.424,675.633C688.069,676.806 689.595,676.366 692.002,674.312C694.408,672.258 697.9,667.709 702.478,660.666C704.474,657.614 706.799,654.034 709.453,649.925C712.107,645.816 714.856,641.121 717.701,635.839C720.192,631.261 722.445,627.622 724.459,624.922C726.474,622.222 728.303,620.109 729.947,618.583C731.59,617.057 733.028,616.059 734.261,615.59C735.493,615.12 736.638,614.885 737.694,614.885C739.455,614.885 741.04,615.531 742.448,616.822C743.857,618.113 744.561,619.639 744.561,621.4C744.561,623.748 743.652,627.328 741.832,632.141C740.013,636.954 738.046,642.295 735.933,648.164C733.821,654.034 731.854,659.991 730.035,666.036C728.215,672.082 727.306,677.393 727.306,681.971C727.306,683.615 727.511,685.023 727.922,686.197C728.333,687.371 728.802,688.398 729.331,689.279C729.859,690.159 730.358,691.01 730.827,691.832C731.297,692.654 731.532,693.593 731.532,694.649C731.532,696.527 730.738,698.083 729.152,699.315C727.565,700.548 725.882,701.164 724.103,701.164C721.022,701.164 718.532,700.166 716.635,698.171C714.738,696.175 713.315,693.769 712.366,690.951C711.418,688.134 710.766,685.17 710.41,682.059C710.054,678.949 709.817,676.337 709.698,674.224ZM934.903,666.124L934.551,667.533C934.433,668.002 934.375,668.472 934.375,668.942C934.375,670.585 934.58,672.082 934.991,673.432C935.402,674.782 936.605,675.456 938.601,675.456C941.653,675.456 944.822,674.87 948.109,673.696C951.396,672.522 954.594,671.055 957.705,669.294C960.816,667.533 963.78,665.596 966.597,663.483C969.414,661.37 971.967,659.433 974.257,657.672L979.979,653.271C981.505,652.097 982.562,651.51 983.149,651.51C984.792,651.51 986.406,652.185 987.991,653.535C989.575,654.885 990.368,656.44 990.368,658.201C990.368,660.901 989.399,663.689 987.462,666.564C985.526,669.44 983.002,672.287 979.891,675.104C976.78,677.922 973.288,680.592 969.414,683.116C965.541,685.64 961.608,687.841 957.617,689.719C953.626,691.597 949.811,693.094 946.172,694.209C942.533,695.324 939.422,695.882 936.84,695.882C933.318,695.882 930.031,695.265 926.979,694.033C923.927,692.8 921.315,691.098 919.144,688.927C916.972,686.755 915.27,684.172 914.037,681.179C912.805,678.186 912.189,674.928 912.189,671.407C912.189,666.594 912.922,661.517 914.39,656.176C915.857,650.835 917.941,645.582 920.64,640.417C923.34,635.252 926.539,630.322 930.237,625.626C933.934,620.931 937.984,616.793 942.386,613.213C946.788,609.632 951.484,606.786 956.473,604.673C961.461,602.56 966.538,601.503 971.703,601.503C977.103,601.503 981.358,603.059 984.469,606.169C987.58,609.28 989.135,613.535 989.135,618.935C989.135,624.335 987.316,629.969 983.677,635.839C980.038,641.708 975.518,647.02 970.119,651.774C964.719,656.528 958.85,660.284 952.511,663.043C946.172,665.801 940.303,666.829 934.903,666.124ZM957.265,640.241C961.373,637.541 964.983,634.459 968.094,630.997C971.204,627.534 972.76,624.1 972.76,620.696C972.76,619.522 972.466,618.759 971.879,618.407C971.293,618.055 970.588,617.967 969.766,618.143C968.945,618.319 968.094,618.642 967.213,619.111C966.333,619.581 965.599,619.992 965.012,620.344C959.26,623.396 954.272,627.68 950.046,633.198C947.581,636.484 945.79,639.214 944.675,641.385C943.56,643.557 943.237,645.024 943.707,645.787C944.176,646.55 945.497,646.491 947.669,645.611C949.84,644.731 953.039,642.941 957.265,640.241ZM1041.08,620.872C1039.55,622.75 1037.62,625.978 1035.27,630.556C1032.92,635.134 1030.6,640.065 1028.31,645.347C1026.02,650.629 1023.97,655.736 1022.15,660.666C1020.33,665.596 1019.25,669.294 1018.89,671.759C1020.54,669.881 1022.94,666.77 1026.11,662.427C1029.28,658.083 1032.89,653.212 1036.94,647.812C1040.99,642.412 1045.25,636.836 1049.71,631.085C1054.17,625.333 1058.54,620.05 1062.82,615.237C1067.11,610.425 1071.04,606.492 1074.62,603.44C1078.2,600.388 1081.17,598.862 1083.51,598.862C1086.57,598.862 1089.32,599.948 1091.79,602.12C1094.25,604.291 1095.72,606.903 1096.19,609.955C1096.54,611.951 1096.25,614.621 1095.31,617.967C1094.37,621.312 1093.05,625.039 1091.35,629.148C1089.65,633.256 1087.77,637.599 1085.71,642.178C1083.66,646.756 1081.69,651.334 1079.82,655.912C1077.94,660.49 1076.32,664.892 1074.97,669.118C1073.62,673.344 1072.83,677.159 1072.6,680.563C1075.06,681.854 1077.32,683.175 1079.38,684.525C1081.43,685.874 1082.75,688.075 1083.34,691.128C1083.57,692.419 1083.45,693.505 1082.99,694.385C1082.52,695.265 1081.84,696.028 1080.96,696.674C1080.08,697.32 1079.08,697.789 1077.97,698.083C1076.85,698.376 1075.77,698.523 1074.71,698.523C1071.89,698.523 1069.22,698.053 1066.7,697.114C1064.17,696.175 1061.91,694.708 1059.92,692.712C1056.28,689.191 1054.11,684.935 1053.4,679.946C1052.7,674.958 1052.73,669.939 1053.49,664.892C1054.26,659.844 1055.34,655.061 1056.75,650.541C1058.16,646.022 1059.16,642.471 1059.74,639.889C1058.1,641.415 1055.96,644.085 1053.32,647.9C1050.67,651.715 1047.77,656.058 1044.6,660.93C1041.43,665.801 1038.12,670.849 1034.65,676.073C1031.19,681.296 1027.81,686.08 1024.53,690.423C1021.24,694.766 1018.13,698.347 1015.2,701.164C1012.26,703.981 1009.8,705.39 1007.8,705.39C1004.28,705.39 1001.23,704.187 998.643,701.78C996.061,699.374 994.476,696.469 993.889,693.064C993.302,689.778 993.508,685.17 994.506,679.242C995.503,673.314 997.029,666.887 999.084,659.962C1001.14,653.036 1003.66,646.022 1006.65,638.92C1009.65,631.818 1012.88,625.391 1016.34,619.639C1019.8,613.887 1023.44,609.163 1027.26,605.465C1031.07,601.767 1034.86,599.919 1038.61,599.919C1041.66,599.919 1044.28,600.77 1046.45,602.472C1048.62,604.174 1050,606.551 1050.59,609.603C1052,617.703 1048.83,621.459 1041.08,620.872ZM476.495,681.204L465.068,690.881C461.554,693.861 456.965,695.264 452.383,694.767C447.8,694.266 443.624,691.903 440.831,688.243L428.19,671.629L463.554,641.664L477.864,656.869C481.021,660.222 482.665,664.731 482.412,669.33C482.148,673.927 480.008,678.229 476.495,681.204Z" style="fill:white;"/>
        </g>
    </g>
</svg>
